<svg width="253" height="268" viewBox="0 0 253 268" fill="none" xmlns="http://www.w3.org/2000/svg">
<g opacity="0.95" filter="url(#filter0_b_3028_2375)">
<path d="M69.9877 109.769L170.329 -75.5164C181.434 -96.0215 210.927 -95.827 221.76 -75.1773L339.403 149.066C343.999 157.828 343.836 168.323 338.97 176.938L231.143 367.814C219.554 388.328 189.674 387.323 179.491 366.076L69.3338 136.242C65.2985 127.822 65.5416 117.979 69.9877 109.769Z" fill="url(#paint0_radial_3028_2375)" fill-opacity="0.15"/>
<path d="M70.3664 109.974L170.708 -75.3113C181.648 -95.5134 210.706 -95.3218 221.379 -74.9772L339.022 149.266C343.55 157.898 343.39 168.239 338.595 176.726L230.768 367.602C219.35 387.813 189.912 386.823 179.879 365.89L69.7222 136.055C65.7465 127.76 65.986 118.063 70.3664 109.974Z" stroke="url(#paint1_radial_3028_2375)" stroke-width="0.861305"/>
</g>
<g opacity="0.95" filter="url(#filter1_b_3028_2375)">
<path d="M101.206 111.078L186.75 -46.8833C197.855 -67.3885 227.348 -67.1941 238.181 -46.5443L339.146 145.909C343.743 154.671 343.58 165.166 338.713 173.781L246.756 336.564C235.167 357.079 205.287 356.073 195.104 334.826L100.552 137.551C96.5167 129.132 96.7598 119.288 101.206 111.078Z" fill="url(#paint2_radial_3028_2375)" fill-opacity="0.15"/>
<path d="M101.585 111.283L187.129 -46.6783C198.069 -66.8804 227.127 -66.6888 237.8 -46.3442L338.765 146.109C343.293 154.741 343.133 165.082 338.338 173.569L246.381 336.352C234.963 356.564 205.525 355.573 195.492 334.64L100.94 137.365C96.9647 129.07 97.2042 119.372 101.585 111.283Z" stroke="url(#paint3_radial_3028_2375)" stroke-width="0.861305"/>
</g>
<g opacity="0.95" filter="url(#filter2_b_3028_2375)">
<path d="M128.462 113.758L201.777 -21.6222C212.882 -42.1273 242.375 -41.9329 253.208 -21.2831L340.39 144.898C344.987 153.659 344.824 164.155 339.957 172.769L261.115 312.336C249.526 332.85 219.647 331.845 209.463 310.598L127.808 140.231C123.773 131.811 124.016 121.968 128.462 113.758Z" fill="url(#paint4_radial_3028_2375)" fill-opacity="0.15"/>
<path d="M128.841 113.963L202.156 -21.4171C213.097 -41.6192 242.154 -41.4277 252.827 -21.0831L340.009 145.098C344.537 153.73 344.377 164.07 339.582 172.557L260.74 312.124C249.323 332.335 219.885 331.345 209.852 310.412L128.197 140.045C124.221 131.75 124.46 122.052 128.841 113.963Z" stroke="url(#paint5_radial_3028_2375)" stroke-width="0.861305"/>
</g>
<g opacity="0.95" filter="url(#filter3_b_3028_2375)">
<path d="M156.769 114.944L216.666 4.34095C227.77 -16.1642 257.263 -15.9698 268.097 4.67998L340.155 142.033C344.751 150.795 344.588 161.29 339.722 169.905L275.271 283.997C263.682 304.511 233.802 303.506 223.619 282.258L156.115 141.416C152.079 132.997 152.322 123.154 156.769 114.944Z" fill="url(#paint6_radial_3028_2375)" fill-opacity="0.15"/>
<path d="M157.147 115.149L217.044 4.54603C227.985 -15.6561 257.042 -15.4645 267.715 4.88005L339.774 142.233C344.302 150.865 344.142 161.206 339.347 169.693L274.896 283.785C263.478 303.996 234.04 303.006 224.007 282.072L156.503 141.23C152.527 132.935 152.767 123.237 157.147 115.149Z" stroke="url(#paint7_radial_3028_2375)" stroke-width="0.861305"/>
</g>
<g opacity="0.95" filter="url(#filter4_b_3028_2375)">
<path d="M185.712 116.176L233.397 28.124C244.501 7.61885 273.994 7.81333 284.828 28.4631L343.121 139.579C347.718 148.341 347.555 158.836 342.688 167.451L291.335 258.358C279.746 278.872 249.866 277.867 239.683 256.619L185.058 142.649C181.023 134.229 181.266 124.386 185.712 116.176Z" fill="url(#paint8_radial_3028_2375)" fill-opacity="0.15"/>
<path d="M186.09 116.381L233.775 28.3291C244.716 8.12695 273.773 8.31856 284.446 28.6632L342.74 139.78C347.269 148.412 347.108 158.752 342.313 167.239L290.96 258.146C279.542 278.357 250.104 277.367 240.071 256.433L185.446 142.463C181.471 134.168 181.71 124.47 186.09 116.381Z" stroke="url(#paint9_radial_3028_2375)" stroke-width="0.861305"/>
</g>
<g opacity="0.95" filter="url(#filter5_b_3028_2375)">
<path d="M214.334 118.985L250.678 51.8744C261.783 31.3693 291.276 31.5637 302.109 52.2135L347.621 138.965C352.218 147.727 352.055 158.222 347.188 166.837L307.997 236.213C296.409 256.728 266.529 255.722 256.345 234.475L213.681 145.458C209.645 137.038 209.888 127.195 214.334 118.985Z" fill="url(#paint10_radial_3028_2375)" fill-opacity="0.15"/>
<path d="M214.713 119.19L251.057 52.0795C261.998 31.8774 291.055 32.0689 301.728 52.4135L347.24 139.166C351.769 147.798 351.608 158.138 346.813 166.625L307.622 236.001C296.205 256.213 266.767 255.222 256.734 234.289L214.069 145.272C210.093 136.977 210.333 127.279 214.713 119.19Z" stroke="url(#paint11_radial_3028_2375)" stroke-width="0.861305"/>
</g>
<g opacity="0.95" filter="url(#filter6_b_3028_2375)">
<path d="M246.277 117.289L282.621 50.1781C293.725 29.673 323.219 29.8674 334.052 50.5172L379.564 137.269C384.16 146.031 383.997 156.526 379.131 165.141L339.94 234.517C328.351 255.031 298.471 254.026 288.288 232.779L245.623 143.762C241.588 135.342 241.831 125.499 246.277 117.289Z" fill="url(#paint12_radial_3028_2375)" fill-opacity="0.15"/>
<path d="M246.656 117.494L283 50.3832C293.94 30.1811 322.997 30.3727 333.671 50.7173L379.182 137.469C383.711 146.101 383.55 156.442 378.756 164.929L339.565 234.305C328.147 254.516 298.709 253.526 288.676 232.592L246.011 143.575C242.036 135.28 242.275 125.583 246.656 117.494Z" stroke="url(#paint13_radial_3028_2375)" stroke-width="0.861305"/>
</g>
<defs>
<filter id="filter0_b_3028_2375" x="52.8112" y="-104.441" width="303.587" height="500.723" filterUnits="userSpaceOnUse" color-interpolation-filters="sRGB">
<feFlood flood-opacity="0" result="BackgroundImageFix"/>
<feGaussianBlur in="BackgroundImageFix" stdDeviation="6.83004"/>
<feComposite in2="SourceAlpha" operator="in" result="effect1_backgroundBlur_3028_2375"/>
<feBlend mode="normal" in="SourceGraphic" in2="effect1_backgroundBlur_3028_2375" result="shape"/>
</filter>
<filter id="filter1_b_3028_2375" x="84.0295" y="-75.8075" width="272.112" height="440.84" filterUnits="userSpaceOnUse" color-interpolation-filters="sRGB">
<feFlood flood-opacity="0" result="BackgroundImageFix"/>
<feGaussianBlur in="BackgroundImageFix" stdDeviation="6.83004"/>
<feComposite in2="SourceAlpha" operator="in" result="effect1_backgroundBlur_3028_2375"/>
<feBlend mode="normal" in="SourceGraphic" in2="effect1_backgroundBlur_3028_2375" result="shape"/>
</filter>
<filter id="filter2_b_3028_2375" x="111.286" y="-50.5463" width="246.1" height="391.351" filterUnits="userSpaceOnUse" color-interpolation-filters="sRGB">
<feFlood flood-opacity="0" result="BackgroundImageFix"/>
<feGaussianBlur in="BackgroundImageFix" stdDeviation="6.83004"/>
<feComposite in2="SourceAlpha" operator="in" result="effect1_backgroundBlur_3028_2375"/>
<feBlend mode="normal" in="SourceGraphic" in2="effect1_backgroundBlur_3028_2375" result="shape"/>
</filter>
<filter id="filter3_b_3028_2375" x="139.592" y="-24.5834" width="217.559" height="337.049" filterUnits="userSpaceOnUse" color-interpolation-filters="sRGB">
<feFlood flood-opacity="0" result="BackgroundImageFix"/>
<feGaussianBlur in="BackgroundImageFix" stdDeviation="6.83004"/>
<feComposite in2="SourceAlpha" operator="in" result="effect1_backgroundBlur_3028_2375"/>
<feBlend mode="normal" in="SourceGraphic" in2="effect1_backgroundBlur_3028_2375" result="shape"/>
</filter>
<filter id="filter4_b_3028_2375" x="168.535" y="-0.80022" width="191.582" height="287.626" filterUnits="userSpaceOnUse" color-interpolation-filters="sRGB">
<feFlood flood-opacity="0" result="BackgroundImageFix"/>
<feGaussianBlur in="BackgroundImageFix" stdDeviation="6.83004"/>
<feComposite in2="SourceAlpha" operator="in" result="effect1_backgroundBlur_3028_2375"/>
<feBlend mode="normal" in="SourceGraphic" in2="effect1_backgroundBlur_3028_2375" result="shape"/>
</filter>
<filter id="filter5_b_3028_2375" x="197.158" y="22.9503" width="167.459" height="241.731" filterUnits="userSpaceOnUse" color-interpolation-filters="sRGB">
<feFlood flood-opacity="0" result="BackgroundImageFix"/>
<feGaussianBlur in="BackgroundImageFix" stdDeviation="6.83004"/>
<feComposite in2="SourceAlpha" operator="in" result="effect1_backgroundBlur_3028_2375"/>
<feBlend mode="normal" in="SourceGraphic" in2="effect1_backgroundBlur_3028_2375" result="shape"/>
</filter>
<filter id="filter6_b_3028_2375" x="229.1" y="21.254" width="167.459" height="241.731" filterUnits="userSpaceOnUse" color-interpolation-filters="sRGB">
<feFlood flood-opacity="0" result="BackgroundImageFix"/>
<feGaussianBlur in="BackgroundImageFix" stdDeviation="6.83004"/>
<feComposite in2="SourceAlpha" operator="in" result="effect1_backgroundBlur_3028_2375"/>
<feBlend mode="normal" in="SourceGraphic" in2="effect1_backgroundBlur_3028_2375" result="shape"/>
</filter>
<radialGradient id="paint0_radial_3028_2375" cx="0" cy="0" r="1" gradientUnits="userSpaceOnUse" gradientTransform="translate(128.546 -78.4828) rotate(40.0906) scale(289.354 355.202)">
<stop stop-color="#F6F1E7"/>
<stop offset="0.25" stop-color="#4CB7A3"/>
<stop offset="0.5" stop-color="#3F59E4"/>
<stop offset="0.75" stop-color="#4016A0"/>
<stop offset="1" stop-color="#191919"/>
</radialGradient>
<radialGradient id="paint1_radial_3028_2375" cx="0" cy="0" r="1" gradientUnits="userSpaceOnUse" gradientTransform="translate(25.7603 116.073) rotate(44.9402) scale(364.033 201.383)">
<stop stop-color="#191919"/>
<stop offset="0.177083" stop-color="#4016A0"/>
<stop offset="0.34375" stop-color="#3F59E4"/>
<stop offset="0.5" stop-color="#4CB7A3"/>
<stop offset="0.682292" stop-color="#F6F1E7"/>
<stop offset="0.807292" stop-color="#4016A0"/>
</radialGradient>
<radialGradient id="paint2_radial_3028_2375" cx="0" cy="0" r="1" gradientUnits="userSpaceOnUse" gradientTransform="translate(152.486 -54.8511) rotate(40.0906) scale(257.271 315.817)">
<stop stop-color="#F6F1E7"/>
<stop offset="0.25" stop-color="#4CB7A3"/>
<stop offset="0.5" stop-color="#3F59E4"/>
<stop offset="0.75" stop-color="#4016A0"/>
<stop offset="1" stop-color="#191919"/>
</radialGradient>
<radialGradient id="paint3_radial_3028_2375" cx="0" cy="0" r="1" gradientUnits="userSpaceOnUse" gradientTransform="translate(61.0977 118.133) rotate(44.9403) scale(323.669 179.053)">
<stop stop-color="#191919"/>
<stop offset="0.177083" stop-color="#4016A0"/>
<stop offset="0.34375" stop-color="#3F59E4"/>
<stop offset="0.5" stop-color="#4CB7A3"/>
<stop offset="0.682292" stop-color="#F6F1E7"/>
<stop offset="0.807292" stop-color="#4016A0"/>
</radialGradient>
<radialGradient id="paint4_radial_3028_2375" cx="0" cy="0" r="1" gradientUnits="userSpaceOnUse" gradientTransform="translate(173.728 -33.7232) rotate(40.0906) scale(230.756 283.268)">
<stop stop-color="#F6F1E7"/>
<stop offset="0.25" stop-color="#4CB7A3"/>
<stop offset="0.5" stop-color="#3F59E4"/>
<stop offset="0.75" stop-color="#4016A0"/>
<stop offset="1" stop-color="#191919"/>
</radialGradient>
<radialGradient id="paint5_radial_3028_2375" cx="0" cy="0" r="1" gradientUnits="userSpaceOnUse" gradientTransform="translate(91.7581 121.432) rotate(44.9403) scale(290.311 160.6)">
<stop stop-color="#191919"/>
<stop offset="0.177083" stop-color="#4016A0"/>
<stop offset="0.34375" stop-color="#3F59E4"/>
<stop offset="0.5" stop-color="#4CB7A3"/>
<stop offset="0.682292" stop-color="#F6F1E7"/>
<stop offset="0.807292" stop-color="#4016A0"/>
</radialGradient>
<radialGradient id="paint6_radial_3028_2375" cx="0" cy="0" r="1" gradientUnits="userSpaceOnUse" gradientTransform="translate(195.435 -12.2953) rotate(40.0906) scale(201.662 247.554)">
<stop stop-color="#F6F1E7"/>
<stop offset="0.25" stop-color="#4CB7A3"/>
<stop offset="0.5" stop-color="#3F59E4"/>
<stop offset="0.75" stop-color="#4016A0"/>
<stop offset="1" stop-color="#191919"/>
</radialGradient>
<radialGradient id="paint7_radial_3028_2375" cx="0" cy="0" r="1" gradientUnits="userSpaceOnUse" gradientTransform="translate(123.8 123.298) rotate(44.9403) scale(253.709 140.351)">
<stop stop-color="#191919"/>
<stop offset="0.177083" stop-color="#4016A0"/>
<stop offset="0.34375" stop-color="#3F59E4"/>
<stop offset="0.5" stop-color="#4CB7A3"/>
<stop offset="0.682292" stop-color="#F6F1E7"/>
<stop offset="0.807292" stop-color="#4016A0"/>
</radialGradient>
<radialGradient id="paint8_radial_3028_2375" cx="0" cy="0" r="1" gradientUnits="userSpaceOnUse" gradientTransform="translate(218.372 7.3601) rotate(40.0906) scale(175.183 215.049)">
<stop stop-color="#F6F1E7"/>
<stop offset="0.25" stop-color="#4CB7A3"/>
<stop offset="0.5" stop-color="#3F59E4"/>
<stop offset="0.75" stop-color="#4016A0"/>
<stop offset="1" stop-color="#191919"/>
</radialGradient>
<radialGradient id="paint9_radial_3028_2375" cx="0" cy="0" r="1" gradientUnits="userSpaceOnUse" gradientTransform="translate(156.143 125.15) rotate(44.9403) scale(220.396 121.923)">
<stop stop-color="#191919"/>
<stop offset="0.177083" stop-color="#4016A0"/>
<stop offset="0.34375" stop-color="#3F59E4"/>
<stop offset="0.5" stop-color="#4CB7A3"/>
<stop offset="0.682292" stop-color="#F6F1E7"/>
<stop offset="0.807292" stop-color="#4016A0"/>
</radialGradient>
<radialGradient id="paint10_radial_3028_2375" cx="0" cy="0" r="1" gradientUnits="userSpaceOnUse" gradientTransform="translate(241.417 27.2774) rotate(40.0906) scale(150.594 184.864)">
<stop stop-color="#F6F1E7"/>
<stop offset="0.25" stop-color="#4CB7A3"/>
<stop offset="0.5" stop-color="#3F59E4"/>
<stop offset="0.75" stop-color="#4016A0"/>
<stop offset="1" stop-color="#191919"/>
</radialGradient>
<radialGradient id="paint11_radial_3028_2375" cx="0" cy="0" r="1" gradientUnits="userSpaceOnUse" gradientTransform="translate(187.922 128.534) rotate(44.9403) scale(189.46 104.809)">
<stop stop-color="#191919"/>
<stop offset="0.177083" stop-color="#4016A0"/>
<stop offset="0.34375" stop-color="#3F59E4"/>
<stop offset="0.5" stop-color="#4CB7A3"/>
<stop offset="0.682292" stop-color="#F6F1E7"/>
<stop offset="0.807292" stop-color="#4016A0"/>
</radialGradient>
<radialGradient id="paint12_radial_3028_2375" cx="0" cy="0" r="1" gradientUnits="userSpaceOnUse" gradientTransform="translate(273.359 25.5811) rotate(40.0906) scale(150.594 184.864)">
<stop stop-color="#F6F1E7"/>
<stop offset="0.25" stop-color="#4CB7A3"/>
<stop offset="0.5" stop-color="#3F59E4"/>
<stop offset="0.75" stop-color="#4016A0"/>
<stop offset="1" stop-color="#191919"/>
</radialGradient>
<radialGradient id="paint13_radial_3028_2375" cx="0" cy="0" r="1" gradientUnits="userSpaceOnUse" gradientTransform="translate(219.865 126.837) rotate(44.9403) scale(189.46 104.809)">
<stop stop-color="#191919"/>
<stop offset="0.177083" stop-color="#4016A0"/>
<stop offset="0.34375" stop-color="#3F59E4"/>
<stop offset="0.5" stop-color="#4CB7A3"/>
<stop offset="0.682292" stop-color="#F6F1E7"/>
<stop offset="0.807292" stop-color="#4016A0"/>
</radialGradient>
</defs>
</svg>
