<?xml version="1.0" encoding="UTF-8"?>
<svg xmlns="http://www.w3.org/2000/svg" height="512" viewBox="0 0 64 64" width="512">
    <g id="outline">
        <path
            d="m61.955 52.7-5-16a1 1 0 0 0 -.955-.7h-1v-23a.993.993 0 0 0 -.075-.37l-4-10a1 1 0 0 0 -.925-.63h-36a1 1 0 0 0 -.929.628l-4 10a.993.993 0 0 0 -.071.372v23h-1a1 1 0 0 0 -.955.7l-5 16a1.018 1.018 0 0 0 -.007.111.913.913 0 0 0 -.038.189v8a1 1 0 0 0 1 1h6a1 1 0 0 0 1-1v-3h18v3a1 1 0 0 0 1 1h6a1 1 0 0 0 1-1v-3h18v3a1 1 0 0 0 1 1h6a1 1 0 0 0 1-1v-8a.913.913 0 0 0 -.038-.187 1.018 1.018 0 0 0 -.007-.113zm-57.955 1.3h56v2h-56zm5-10h-2.14l.625-2h1.515zm0 2v2h-3.39l.625-2zm43.523-34h-19.523v-3h18.323zm.477 20h-20v-18h20zm2 10h1.515l.625 2h-2.14zm0 4h2.765l.625 2h-3.39zm0 4h4.015l.625 2h-4.64zm-2 2h-20v-18h20zm-22-40h-19.523l1.2-3h18.323zm0 2v18h-20v-18zm0 38h-20v-18h20zm24.265-14 .625 2h-.89v-2zm-4.742-31h-17.523v-3h16.323zm-35.846-3h16.323v3h-17.523zm-5.677 34v2h-.89l.625-2zm-4 11.953v.047h4v2h-4.64zm3 10.047h-4v-2h4zm26 0h-4v-2h4zm22 0v-2h4v2z"></path>
        <path
            d="m14 23h6a1 1 0 0 0 1-1v-5a1 1 0 0 0 -1-1h-6a1 1 0 0 0 -1 1v5a1 1 0 0 0 1 1zm1-5h4v3h-4z"></path>
        <path
            d="m36 23h6a1 1 0 0 0 1-1v-5a1 1 0 0 0 -1-1h-6a1 1 0 0 0 -1 1v5a1 1 0 0 0 1 1zm1-5h4v3h-4z"></path>
        <path
            d="m14 43h6a1 1 0 0 0 1-1v-5a1 1 0 0 0 -1-1h-6a1 1 0 0 0 -1 1v5a1 1 0 0 0 1 1zm1-5h4v3h-4z"></path>
        <path
            d="m36 43h6a1 1 0 0 0 1-1v-5a1 1 0 0 0 -1-1h-6a1 1 0 0 0 -1 1v5a1 1 0 0 0 1 1zm1-5h4v3h-4z"></path>
        <path d="m25 25h4v2h-4z"></path>
        <path d="m25 28h4v2h-4z"></path>
        <path d="m25 45h4v2h-4z"></path>
        <path d="m25 48h4v2h-4z"></path>
        <path d="m47 45h4v2h-4z"></path>
        <path d="m47 48h4v2h-4z"></path>
        <path d="m47 25h4v2h-4z"></path>
        <path d="m47 28h4v2h-4z"></path>
    </g>
</svg>