<?xml version="1.0" encoding="UTF-8"?>
<svg xmlns="http://www.w3.org/2000/svg" clip-rule="evenodd" fill-rule="evenodd" height="512"
    image-rendering="optimizeQuality" shape-rendering="geometricPrecision"
    text-rendering="geometricPrecision" viewBox="0 0 1707 1707" width="512">
    <g id="Layer_x0020_1">
        <g id="_383541248">
            <g>
                <g>
                    <g>
                        <path
                            d="m1683 1570h-1520c-13 0-23-10-23-23v-1520c0-13 10-24 23-24s24 11 24 24v1496h1496c13 0 24 11 24 24s-11 23-24 23z"></path>
                    </g>
                    <g>
                        <path
                            d="m73 163c-5 0-10-1-14-5-10-8-12-22-4-32l90-114c8-10 23-11 33-3s12 22 4 32l-90 114c-5 5-12 8-19 8z"></path>
                    </g>
                    <g>
                        <path
                            d="m1683 1570c-5 0-10-2-14-5l-113-90c-10-8-12-23-4-33s23-11 33-3l113 90c10 8 12 22 4 32-5 6-12 9-19 9z"></path>
                    </g>
                    <g>
                        <path
                            d="m1570 1660c-7 0-14-3-18-9-8-10-7-24 3-32l114-90c10-8 24-7 32 3s7 25-3 33l-114 90c-4 3-9 5-14 5z"></path>
                    </g>
                    <g>
                        <path
                            d="m70 283h-47c-13 0-23-10-23-23s10-23 23-23h47c13 0 23 10 23 23s-10 23-23 23z"></path>
                    </g>
                    <g>
                        <path
                            d="m70 563h-47c-13 0-23-10-23-23s10-23 23-23h47c13 0 23 10 23 23s-10 23-23 23z"></path>
                    </g>
                    <g>
                        <path
                            d="m70 843h-47c-13 0-23-10-23-23s10-23 23-23h47c13 0 23 10 23 23s-10 23-23 23z"></path>
                    </g>
                    <g>
                        <path
                            d="m70 1123h-47c-13 0-23-10-23-23s10-23 23-23h47c13 0 23 10 23 23s-10 23-23 23z"></path>
                    </g>
                    <g>
                        <path
                            d="m70 1403h-47c-13 0-23-10-23-23s10-23 23-23h47c13 0 23 10 23 23s-10 23-23 23z"></path>
                    </g>
                    <g>
                        <path
                            d="m360 1703c-13 0-23-10-23-23v-47c0-13 10-23 23-23s23 10 23 23v47c0 13-10 23-23 23z"></path>
                    </g>
                    <g>
                        <path
                            d="m637 1703c-13 0-24-10-24-23v-47c0-13 11-23 24-23s23 10 23 23v47c0 13-10 23-23 23z"></path>
                    </g>
                    <g>
                        <path
                            d="m910 1703c-13 0-23-10-23-23v-47c0-13 10-23 23-23s23 10 23 23v47c0 13-10 23-23 23z"></path>
                    </g>
                    <g>
                        <path
                            d="m1187 1703c-13 0-24-10-24-23v-47c0-13 11-23 24-23s23 10 23 23v47c0 13-10 23-23 23z"></path>
                    </g>
                    <g>
                        <path
                            d="m1460 1703c-13 0-23-10-23-23v-47c0-13 10-23 23-23s23 10 23 23v47c0 13-10 23-23 23z"></path>
                    </g>
                    <g>
                        <path
                            d="m253 163c-7 0-13-3-18-8l-90-114c-8-10-6-24 4-32s24-7 32 3l90 114c8 10 7 24-3 32-4 4-10 5-15 5z"></path>
                    </g>
                </g>
                <g>
                    <g>
                        <path
                            d="m433 930c-4 0-8-1-12-3-11-7-14-21-8-32l287-480c7-11 21-15 32-8 11 6 15 21 8 32l-287 480c-4 7-12 11-20 11zm720-263c-8 0-15-4-20-12-6-11-3-25 8-32l244-146c11-7 25-3 32 8 6 11 3 25-8 32l-244 146c-3 3-8 4-12 4zm-113-14c-6 0-11-2-16-6l-233-217c-10-8-10-23-2-33 9-9 24-10 33-1l234 217c9 8 10 23 1 33-4 5-11 7-17 7z"></path>
                    </g>
                    <g>
                        <path
                            d="m430 1320c-7 0-14-3-18-9-8-10-6-25 4-33l253-196c10-8 25-6 33 4 7 10 6 25-4 32l-254 197c-4 3-9 5-14 5zm597-150c-3 0-5 0-7-1l-223-67c-13-3-20-16-16-29 4-12 17-19 29-15l223 66c13 4 20 17 16 29-3 10-12 17-22 17zm110-33c-6 0-11-2-15-6-10-8-11-23-3-33l286-350c9-10 23-11 33-3s12 23 4 33l-287 350c-5 6-12 9-18 9z"></path>
                    </g>
                    <g>
                        <path
                            d="m373 1433c-51 0-93-42-93-93 0-50 44-93 93-93 52 0 94 42 94 93 0 53-40 93-94 93zm0-140c-24 0-46 23-46 47 0 28 24 47 46 47 27 0 47-20 47-47 0-23-19-47-47-47z"></path>
                    </g>
                    <g>
                        <path
                            d="m397 1060c-54 0-94-40-94-93 0-54 40-94 94-94 51 0 93 42 93 94 0 51-42 93-93 93zm0-140c-27 0-47 20-47 47s20 46 47 46c22 0 46-18 46-46s-24-47-46-47z"></path>
                    </g>
                    <g>
                        <path
                            d="m757 460c-52 0-94-42-94-93 0-54 40-94 94-94 50 0 90 41 90 94 0 50-42 93-90 93zm0-140c-27 0-47 20-47 47 0 22 19 46 47 46 23 0 43-21 43-46 0-27-19-47-43-47z"></path>
                    </g>
                    <g>
                        <path
                            d="m1093 770c-53 0-93-40-93-93 0-52 42-94 93-94 50 0 94 44 94 94 0 51-42 93-94 93zm0-140c-28 0-46 24-46 47 0 27 19 46 46 46 23 0 47-18 47-46 0-24-23-47-47-47z"></path>
                    </g>
                    <g>
                        <path
                            d="m1457 553c-51 0-90-41-90-93 0-50 40-90 90-90 52 0 93 40 93 90 0 53-40 93-93 93zm0-136c-24 0-44 19-44 43 0 26 19 47 44 47 27 0 46-20 46-47 0-24-20-43-46-43z"></path>
                    </g>
                    <g>
                        <path
                            d="m1467 803c-54 0-94-40-94-93 0-51 42-93 94-93 49 0 93 43 93 93 0 51-42 93-93 93zm0-140c-28 0-47 24-47 47 0 27 20 47 47 47 22 0 46-19 46-47 0-24-22-47-46-47z"></path>
                    </g>
                    <g>
                        <path
                            d="m1093 1260c-52 0-93-40-93-90 0-53 40-93 93-93 52 0 94 42 94 93 0 49-43 90-94 90zm0-137c-27 0-46 20-46 47 0 24 20 43 46 43 25 0 47-20 47-43 0-28-24-47-47-47z"></path>
                    </g>
                    <g>
                        <path
                            d="m737 1150c-54 0-94-40-94-93 0-51 41-90 94-90 52 0 93 39 93 90 0 53-40 93-93 93zm0-137c-27 0-47 19-47 44 0 27 20 46 47 46s46-19 46-46c0-25-20-44-46-44z"></path>
                    </g>
                </g>
            </g>
        </g>
    </g>
</svg>