<?xml version="1.0" encoding="UTF-8"?>
<svg xmlns="http://www.w3.org/2000/svg" id="Capa_1" height="512" viewBox="0 0 512 512" width="512">
    <path
        d="m492.279 196.764h-5.751l-12.263-119.698c-.655-6.4-6.001-11.227-12.435-11.227h-37.511c-6.434 0-11.78 4.826-12.435 11.226l-6.561 64.031h-24.863l-6.56-64.032c-.657-6.399-6.002-11.225-12.435-11.225h-37.511c-6.434 0-11.779 4.826-12.435 11.226l-6.561 64.031h-8.474v-126.096h38.966v13.754c0 4.143 3.358 7.5 7.5 7.5s7.5-3.357 7.5-7.5v-13.754h85.671v13.754c0 4.143 3.358 7.5 7.5 7.5s7.5-3.357 7.5-7.5v-13.754h8.449c4.142 0 7.5-3.357 7.5-7.5s-3.358-7.5-7.5-7.5h-341.172c-4.142 0-7.5 3.357-7.5 7.5s3.358 7.5 7.5 7.5h8.449v13.754c0 4.143 3.358 7.5 7.5 7.5s7.5-3.357 7.5-7.5v-13.754h85.671v13.754c0 4.143 3.358 7.5 7.5 7.5s7.5-3.357 7.5-7.5v-13.754h38.966v126.097h-8.474l-6.561-64.03c-.655-6.4-6.001-11.227-12.435-11.227h-37.511c-6.433 0-11.778 4.825-12.435 11.226l-6.56 64.031h-24.864l-6.56-64.03c-.655-6.4-6.001-11.227-12.435-11.227h-37.511c-6.434 0-11.78 4.826-12.435 11.226l-6.56 64.031h-27.55c-12.407 0-22.5 10.094-22.5 22.5v84.706c0 9.649 7.851 17.5 17.5 17.5h39.616 22.093v44.136h-8.014c-4.142 0-7.5 3.357-7.5 7.5s3.358 7.5 7.5 7.5h31.028c4.142 0 7.5-3.357 7.5-7.5s-3.358-7.5-7.5-7.5h-8.014v-16.439h10.167c6.893 0 12.5-5.607 12.5-12.5v-15.197h28.331 66.77c1.557 0 2.823 1.267 2.823 2.823v68.612c0 1.557-1.267 2.822-2.823 2.822h-68.57c-4.142 0-7.5 3.357-7.5 7.5s3.358 7.5 7.5 7.5h15.545v16.056c0 4.136-3.364 7.5-7.5 7.5h-104.709c-4.136 0-7.5-3.364-7.5-7.5v-16.056h68.164c4.142 0 7.5-3.357 7.5-7.5s-3.358-7.5-7.5-7.5h-129.779c-9.649 0-17.5 7.851-17.5 17.5v104.443c0 12.406 10.093 22.5 22.5 22.5h10.633v14.997c0 6.893 5.607 12.5 12.5 12.5h71.444c6.893 0 12.5-5.607 12.5-12.5v-14.996h171.438v14.996c0 6.893 5.607 12.5 12.5 12.5h71.444c6.893 0 12.5-5.607 12.5-12.5v-14.996h35.527c9.649 0 17.5-7.851 17.5-17.5v-84.336c0-9.649-7.851-17.5-17.5-17.5h-10.19v-14.597h10.19c9.649 0 17.5-7.851 17.5-17.5v-27.167c0-9.649-7.851-17.5-17.5-17.5h-10.19v-44.76h62.264c6.893 0 12.5-5.607 12.5-12.5v-21.881c-.002-6.892-5.609-12.499-12.502-12.499zm-166.069-115.924h32.997l6.174 60.257h-45.345zm-107.45 0h32.997l6.174 60.257h-45.345zm-100.365 0h32.997l6.174 60.257h-45.345zm-10.053 120.561c-6.488.448-11.634 5.856-11.634 12.456v36.945h-32.116c-1.378 0-2.5-1.121-2.5-2.5v-84.706c0-4.136 3.364-7.5 7.5-7.5h38.75zm17.959 49.402h-14.593v-34.445h14.593zm-2.959-49.446v-45.261h40.745v45.261zm25.626 77.143h-7.667v-12.697h7.667zm35.83-27.697h-43.497v-34.445h43.497zm35.034 0h-20.033v-36.945c0-6.893-5.607-12.5-12.5-12.5h-8.211v-45.261h40.745v94.706zm-98.035 246.197h-66.443v-12.496h66.444v12.496zm267.882 0h-66.444v-12.496h66.444zm50.527-116.832c1.378 0 2.5 1.121 2.5 2.5v84.336c0 1.379-1.122 2.5-2.5 2.5h-10.19v-36.837c0-4.143-3.358-7.5-7.5-7.5s-7.5 3.357-7.5 7.5v36.837h-385.295c-4.136 0-7.5-3.364-7.5-7.5v-104.443c0-1.379 1.122-2.5 2.5-2.5h46.615v16.056c0 12.406 10.093 22.5 22.5 22.5h104.709c12.407 0 22.5-10.094 22.5-22.5v-16.056h38.022c9.828 0 17.823-7.995 17.823-17.822v-68.612c0-.963-.098-1.901-.246-2.823h80.856c4.142 0 7.5-3.357 7.5-7.5s-3.358-7.5-7.5-7.5h-122.668v-94.706h172.199c4.403 0 7.985 3.582 7.985 7.985v86.721h-22.016c-4.142 0-7.5 3.357-7.5 7.5s3.358 7.5 7.5 7.5h22.016v131.53c0 4.143 3.358 7.5 7.5 7.5s7.5-3.357 7.5-7.5v-17.165h10.19zm0-76.764c1.378 0 2.5 1.121 2.5 2.5v27.167c0 1.379-1.122 2.5-2.5 2.5h-10.19v-32.167zm-20.216-158.293 6.585-64.271h32.997l11.877 115.924h-41.434v-32.682c.001-7.869-3.977-14.826-10.025-18.971zm69.789 83.534h-59.764v-16.881h59.764z"></path>
    <path
        d="m380.387 291.099c0-4.143-3.358-7.5-7.5-7.5h-54.712c-4.142 0-7.5 3.357-7.5 7.5s3.358 7.5 7.5 7.5h54.712c4.142 0 7.5-3.358 7.5-7.5z"></path>
    <path
        d="m392.179 371.345h-24.066c-6.893 0-12.5 5.607-12.5 12.5v59.164c0 6.893 5.607 12.5 12.5 12.5h24.066c6.893 0 12.5-5.607 12.5-12.5v-59.164c0-6.893-5.607-12.5-12.5-12.5zm-2.5 69.164h-19.066v-54.164h19.066z"></path>
    <path
        d="m278.947 184.497c-4.142 0-7.5 3.357-7.5 7.5v20.646c0 4.143 3.358 7.5 7.5 7.5s7.5-3.357 7.5-7.5v-20.646c0-4.143-3.358-7.5-7.5-7.5z"></path>
    <path
        d="m302.69 184.497c-4.142 0-7.5 3.357-7.5 7.5v20.646c0 4.143 3.358 7.5 7.5 7.5s7.5-3.357 7.5-7.5v-20.646c0-4.143-3.358-7.5-7.5-7.5z"></path>
    <path
        d="m326.433 184.497c-4.142 0-7.5 3.357-7.5 7.5v20.646c0 4.143 3.358 7.5 7.5 7.5s7.5-3.357 7.5-7.5v-20.646c0-4.143-3.358-7.5-7.5-7.5z"></path>
    <path
        d="m350.176 184.497c-4.142 0-7.5 3.357-7.5 7.5v20.646c0 4.143 3.358 7.5 7.5 7.5s7.5-3.357 7.5-7.5v-20.646c0-4.143-3.358-7.5-7.5-7.5z"></path>
    <path
        d="m373.919 220.144c4.142 0 7.5-3.357 7.5-7.5v-20.646c0-4.143-3.358-7.5-7.5-7.5s-7.5 3.357-7.5 7.5v20.646c0 4.142 3.358 7.5 7.5 7.5z"></path>
</svg>