<?xml version="1.0" encoding="UTF-8"?>
<svg xmlns="http://www.w3.org/2000/svg" width="475" height="475" viewBox="0 0 475 475" fill="none">
    <g clip-path="url(#clip0_10_29958)">
        <path
            d="M14.9457 0H201.346C203.146 0 204.846 0.599988 206.246 1.79999L464.846 224.4C466.446 225.7 467.346 227.7 467.446 229.8C467.546 231.9 466.746 233.9 465.246 235.4L278.846 418.5C277.346 419.9 275.446 420.6 273.546 420.6C271.846 420.6 270.046 420 268.646 418.9L10.0457 197C8.44572 195.6 7.44571 193.5 7.44571 191.3V7.5C7.44571 3.4 10.8457 0 14.9457 0ZM22.3457 187.8L273.146 402.9L448.846 230.4L198.546 14.9H22.3457V187.8Z"
            fill="black"></path>
        <path
            d="M217.612 285.934C217.542 285.863 217.471 285.934 217.4 285.863C198.945 276.883 185.722 259.418 180.701 238.841L169.6 238.77C165.499 238.77 162.105 235.376 162.105 231.275C162.105 227.174 165.499 223.779 169.6 223.779L178.651 223.779C178.58 222.153 178.58 220.598 178.58 219.042L178.58 218.9C178.651 216.708 178.863 214.516 179.075 212.466L169.6 212.466C165.499 212.466 162.104 209.072 162.104 204.97C162.104 200.869 165.499 197.475 169.6 197.475H182.328C188.762 177.323 202.763 161.483 221.219 154.624C243.492 145.786 267.676 151.301 285 168.625C287.05 170.676 288.959 172.868 290.798 175.131C293.344 178.383 292.707 183.121 289.454 185.666C286.202 188.212 281.464 187.576 278.919 184.323C265.484 167.07 245.472 161.059 226.663 168.554C226.593 168.625 226.522 168.554 226.451 168.625C213.723 173.292 203.682 183.757 198.238 197.404L253.038 197.475C255.16 197.475 256.998 198.324 258.342 199.667C259.685 201.011 260.534 202.849 260.534 204.97C260.534 209.072 257.14 212.466 253.038 212.466L194.207 212.466C193.854 214.799 193.641 217.133 193.571 219.466C193.5 220.951 193.571 222.436 193.641 223.779H262.938C265.059 223.779 266.898 224.628 268.241 225.972C269.585 227.315 270.433 229.154 270.433 231.275C270.433 235.376 267.039 238.77 262.938 238.77L196.258 238.699C200.713 253.337 210.612 265.64 223.906 272.146C242.785 280.56 263.786 275.398 277.504 258.852C280.121 255.67 284.858 255.175 288.111 257.862C291.293 260.478 291.788 265.216 289.101 268.469C270.928 290.46 242.856 297.319 217.612 285.934Z"
            fill="black"></path>
        <path
            d="M19.8459 239.9L273.146 457.2L454.646 275.9C457.546 273 462.346 273 465.246 275.9C468.146 278.8 468.146 283.6 465.246 286.5L278.846 472.7C277.346 474.2 275.446 474.9 273.546 474.9C271.846 474.9 270.046 474.3 268.646 473.2L10.0459 251.3C6.9459 248.6 6.54591 243.8 9.24591 240.7C11.9459 237.6 16.7459 237.2 19.8459 239.9Z"
            fill="black"></path>
        <path
            d="M92.6457 128.9C68.3457 128.9 48.6457 109.2 48.6457 84.8999C48.6457 60.5999 68.3457 40.8999 92.6457 40.8999C116.446 40.8999 135.846 60.6999 135.846 84.8999C135.846 109.2 116.446 128.9 92.6457 128.9ZM92.6457 55.9999C76.6457 55.9999 63.6457 68.9999 63.6457 84.9999C63.6457 101 76.6457 114 92.6457 114C108.146 114 120.846 101 120.846 84.9999C120.846 68.9999 108.246 55.9999 92.6457 55.9999Z"
            fill="black"></path>
    </g>
    <defs>
        <clipPath id="clip0_10_29958">
            <rect width="474.9" height="474.9" fill="white" transform="matrix(-1 0 0 1 474.9 0)"></rect>
        </clipPath>
    </defs>
</svg>