<svg xmlns="http://www.w3.org/2000/svg" width="134" height="40" viewBox="0 0 134 40" fill="none">
    <g clip-path="url(#clip0_30_15)">
        <path
            d="M8.60652 26.1381C8.8914 25.7608 9.12448 25.4641 9.34461 25.1546C11.192 22.5518 13.7818 21.0597 16.9111 20.5637C18.9786 20.2373 21.0893 20.1907 23.1827 20.0296C23.541 19.9999 23.9035 20.0296 24.2618 20.0296C24.292 19.9702 24.3222 19.9151 24.3524 19.8558C23.7827 19.4446 23.2172 19.0376 22.5353 18.5459C25.233 17.8677 26.9077 16.2102 27.6242 13.5692C27.7364 14.1033 27.8314 14.6375 27.9566 15.1631C28.0602 15.5913 28.1724 16.0194 28.3191 16.4391C28.8026 17.8422 29.8687 18.5078 31.319 18.6307C31.8758 18.6773 32.4369 18.6222 32.9937 18.6816C33.2009 18.7028 33.5203 18.8893 33.5505 19.0419C33.5894 19.2496 33.4469 19.5421 33.2958 19.7244C33.175 19.8685 32.9246 19.9194 32.7261 19.9872C32.2427 20.1568 31.7506 20.3094 31.2629 20.4705C30.1622 20.8393 29.4932 21.4963 29.3119 22.7172C28.9536 25.125 29.0184 27.5031 29.5622 29.8685C29.6788 30.3772 29.532 30.6061 29.0184 30.5934C27.1753 30.5383 25.4833 31.1614 23.7611 31.6871C18.4046 33.3149 13.143 33.0054 8.10151 30.6019C3.54348 28.4315 1.07887 24.6799 0.288981 19.8346C-0.220344 16.7104 -0.103803 13.6116 0.992541 10.6103C2.68022 6.01941 5.96494 2.93336 10.5877 1.27164C15.832 -0.614755 21.0202 -0.440952 26.0617 2.05163C26.1005 2.06859 26.1351 2.09402 26.1739 2.11098C27.5681 2.7638 28.1724 4.15422 28.1637 5.36235C28.1551 6.57049 28.1292 8.94014 28.1119 10.7333C28.1119 10.924 27.9695 11.1148 27.8961 11.3056C27.7796 11.136 27.6026 10.9749 27.5638 10.7884C27.0803 8.63069 26.3638 6.57049 24.961 4.8028C23.3511 2.77651 21.1972 1.73794 18.6161 1.48783C12.4783 0.898598 8.40797 4.50182 6.64691 8.317C4.45422 13.0605 4.16072 17.8931 6.2196 22.768C6.7505 24.0228 7.57492 25.1038 8.61084 26.1381H8.60652ZM25.2071 24.3111C25.2071 24.3111 25.1812 24.3111 25.1682 24.3111C25.1682 23.9931 25.1769 23.6794 25.1682 23.3615C25.1251 21.7295 24.961 21.5429 23.3295 21.2292C21.5209 20.8774 19.6994 20.9071 17.878 21.119C14.8695 21.4709 12.2668 22.6154 10.2985 24.9596C8.93888 26.5747 9.0252 27.3378 10.7733 28.5671C13.2466 30.3051 16.0565 30.941 19.0434 30.8562C20.6318 30.8096 22.1468 30.4238 23.4417 29.4488C24.2661 28.8299 24.9265 28.0881 25.0258 27.0241C25.1121 26.1254 25.151 25.2182 25.2071 24.3153V24.3111Z"
            fill="white"></path>
        <path
            d="M128.402 15.9178C128.436 15.6041 128.492 15.3243 128.492 15.0403C128.492 13.0776 128.466 11.1191 128.479 9.16068C128.488 8.15177 128.208 7.34635 127.206 6.88429C127.033 6.80375 126.848 6.53244 126.861 6.36712C126.874 6.21451 127.128 6.03223 127.318 5.95593C128.41 5.5193 129.524 5.13355 130.607 4.68844C131.151 4.46377 131.268 4.67996 131.251 5.14626C131.216 6.11278 131.156 7.08353 131.156 8.05004C131.151 14.3748 131.156 20.6995 131.169 27.0242C131.169 27.5032 131.242 27.9949 131.358 28.4612C131.531 29.1607 131.863 29.3557 132.584 29.2582C132.839 29.2243 133.085 29.148 133.335 29.0886C133.594 29.0293 133.909 28.8343 133.978 29.2878C134.03 29.6312 134.017 29.9746 133.56 30.0848C132.079 30.4282 130.599 30.7673 129.123 31.1276C128.665 31.2421 128.531 31.0555 128.536 30.6571C128.536 30.195 128.536 29.7372 128.536 29.1183C128.138 29.3302 127.862 29.4574 127.608 29.6185C125.907 30.6995 124.077 31.1191 122.078 30.6698C119.169 30.0212 117.089 27.5668 116.894 24.6291C116.489 18.546 121.37 15.2353 126.61 15.6846C127.163 15.7313 127.711 15.8288 128.402 15.9178ZM128.475 23.3192C128.475 23.3192 128.492 23.3192 128.501 23.3192C128.501 22.1619 128.484 21.0004 128.505 19.8432C128.527 18.7198 127.996 17.9186 127.072 17.3252C125.005 15.9983 122.039 16.7868 120.779 19.0929C119.419 21.577 119.471 24.1289 120.865 26.5748C122.229 28.9742 125.07 29.7923 127.465 28.6308C128.134 28.3044 128.492 27.8466 128.484 27.109C128.475 25.8457 128.484 24.5825 128.484 23.3192H128.475Z"
            fill="white"></path>
        <path
            d="M76.511 27.766C76.5714 29.1098 76.8649 29.3599 78.203 29.5125C78.2677 29.521 78.3584 29.4955 78.3929 29.5294C78.544 29.6863 78.6821 29.8601 78.8202 30.0296C78.6476 30.1568 78.4792 30.3984 78.3023 30.3984C76.2434 30.4196 74.1802 30.4196 72.1213 30.39C71.94 30.39 71.6595 30.2034 71.6033 30.0424C71.4911 29.7287 71.7026 29.5676 72.0436 29.5082C73.5932 29.2412 73.8004 28.9911 73.8047 27.4268C73.8047 25.214 73.8262 23.0012 73.8047 20.7884C73.7917 19.4023 73.3817 18.1517 71.9357 17.6134C70.3171 17.0072 68.7287 17.2107 67.4252 18.3722C67.0151 18.741 66.7 19.4277 66.6871 19.9788C66.6137 22.6748 66.6439 25.3751 66.6741 28.0712C66.6827 28.936 67.0108 29.2454 67.8956 29.4404C68.064 29.4786 68.2668 29.4489 68.3963 29.5337C68.5776 29.6566 68.6985 29.8643 68.8452 30.0339C68.6639 30.1611 68.4826 30.4027 68.297 30.4027C66.2597 30.4281 64.2181 30.4239 62.1808 30.3942C61.9909 30.3942 61.8053 30.1738 61.6197 30.0551C61.7751 29.877 61.9175 29.682 62.0945 29.5252C62.1592 29.4701 62.3017 29.504 62.4096 29.4913C63.5664 29.3302 63.8771 29.0462 63.8901 27.9059C63.9203 24.9767 63.9074 22.0474 63.916 19.1182C63.916 18.4612 63.493 18.1051 63.0052 17.7617C62.8024 17.6176 62.5909 17.376 62.5563 17.1555C62.5391 17.0453 62.8801 16.8376 63.0916 16.7316C64.0282 16.2696 64.9778 15.8202 65.9231 15.3794C66.1044 15.2946 66.3115 15.2607 66.5058 15.2056C66.5576 15.3921 66.6396 15.5828 66.6525 15.7736C66.6698 16.0873 66.6353 16.4052 66.6353 16.7189C66.6353 17.5243 66.7777 17.5879 67.4856 17.2234C68.3014 16.8037 69.1042 16.3077 69.9761 16.0619C70.9041 15.8033 71.9228 15.6295 72.8723 15.7185C75.0952 15.922 76.3945 17.3972 76.4592 19.61C76.498 20.9368 76.4678 22.2636 76.4678 23.5947C76.4808 23.5947 76.4549 26.3798 76.5153 27.766H76.511Z"
            fill="white"></path>
        <path
            d="M100.976 20.1568C100.894 22.3018 100.803 24.3408 100.751 26.3798C100.738 26.9012 100.795 27.4353 100.924 27.9398C101.243 29.1818 102.223 29.5973 103.402 29.0674C103.587 28.9826 103.82 28.9996 104.027 28.9699C103.963 29.1946 103.963 29.4828 103.816 29.6312C102.344 31.1191 99.8018 31.3819 98.5415 29.5676C98.235 29.131 97.9113 29.22 97.4926 29.4235C96.4998 29.9067 95.5244 30.5553 94.4669 30.7503C91.9807 31.2039 90.1376 29.5125 90.2887 27.2234C90.3534 26.2526 90.8541 25.5701 91.6915 25.1801C92.7921 24.6672 93.9403 24.256 95.0798 23.8194C95.8999 23.5057 96.7243 23.2132 97.5617 22.9419C98.1141 22.7639 98.3472 22.4247 98.3343 21.8609C98.317 21.0809 98.3818 20.301 98.3343 19.5252C98.2134 17.359 96.0121 16.2653 94.1129 17.4014C93.5216 17.7533 93.2928 18.2832 93.241 18.9275C93.1633 19.911 91.5447 20.8732 90.6297 20.4536C90.4743 20.3815 90.3146 19.9915 90.3836 19.8431C90.6081 19.3302 90.8455 18.7791 91.2339 18.3891C92.7792 16.8291 94.6697 15.8245 96.884 15.6592C99.163 15.4854 100.859 16.49 100.976 19.1903C100.993 19.5464 100.976 19.9067 100.976 20.1611V20.1568ZM98.2177 24.5782C98.2264 24.1416 98.0062 23.8957 97.5876 24.0398C96.4006 24.4425 95.1963 24.8325 94.0611 25.3539C93.2497 25.727 92.9475 26.507 93.1072 27.3845C93.2626 28.2577 93.7547 28.8766 94.6525 29.1437C96.3056 29.6354 98.0624 28.4612 98.1616 26.7868C98.1832 26.4519 98.2134 24.9767 98.2221 24.5782H98.2177Z"
            fill="white"></path>
        <path
            d="M53.4446 15.6211C56.6646 15.7144 57.4976 17.4736 57.4458 19.8051C57.3897 22.2468 57.3034 24.6843 57.243 27.126C57.2343 27.4142 57.3034 27.7152 57.3854 27.995C57.7264 29.1777 58.7019 29.5931 59.85 29.0844C60.0399 28.9996 60.286 29.042 60.5061 29.0251C60.4241 29.2413 60.4025 29.5168 60.2514 29.6652C58.6889 31.1828 56.1682 31.3269 54.9769 29.5465C54.705 29.1353 54.3769 29.2243 53.9755 29.4193C52.9612 29.911 51.9684 30.53 50.8894 30.7716C48.3988 31.3311 46.2321 29.1141 46.8234 26.7572C47.0306 25.9263 47.609 25.3964 48.3514 25.0743C49.5081 24.574 50.6951 24.1501 51.8735 23.705C52.6159 23.4252 53.3842 23.2175 54.1007 22.8911C54.3856 22.764 54.7352 22.4121 54.7525 22.145C54.8086 21.1022 54.8733 20.0255 54.6963 19.0039C54.3554 17.0751 51.8605 16.2824 50.3541 17.588C50.052 17.8509 49.8362 18.3172 49.7757 18.7199C49.5945 19.8899 48.347 20.797 47.1816 20.4748C47.0306 20.4325 46.8191 20.1188 46.8536 19.9831C46.9572 19.5677 47.078 19.1014 47.35 18.7877C49.0074 16.8589 51.1699 15.8627 53.4446 15.6211ZM54.7007 24.6673C54.7309 24.1332 54.4589 23.8831 53.9496 24.0526C52.836 24.4257 51.7095 24.7775 50.652 25.2735C49.6419 25.7525 49.3268 26.6385 49.6117 27.5965C49.9268 28.6563 50.7469 29.3303 51.8346 29.2243C52.4734 29.1607 53.1036 28.8852 53.7036 28.6266C54.282 28.3765 54.5539 27.8636 54.5755 27.2531C54.5971 26.541 54.692 24.8157 54.7007 24.6673Z"
            fill="white"></path>
        <path
            d="M86.0155 29.665C86.0716 34.2559 83.8746 37.5073 80.0072 39.8473C79.7051 40.0295 79.4029 40.0974 79.2562 39.754C79.1871 39.5929 79.3209 39.2072 79.4763 39.1224C81.8848 37.8125 82.8474 35.6251 83.0632 33.1198C83.279 30.6484 83.2876 28.1601 83.3351 25.6802C83.3739 23.637 83.3221 21.5938 83.3524 19.5505C83.3653 18.7536 83.0847 18.1813 82.3941 17.7574C82.1913 17.6345 81.9884 17.3674 81.9711 17.1512C81.9582 17.024 82.2992 16.8375 82.5107 16.7358C83.4905 16.261 84.4875 15.8159 85.4673 15.3411C86.0544 15.0571 86.1407 15.091 86.1407 15.7141C86.1407 15.9261 86.1407 16.1338 86.1407 16.3458C86.0932 16.3458 85.9551 25.2309 86.0112 29.6735L86.0155 29.665Z"
            fill="white"></path>
        <path
            d="M39.5072 15.0444V17.8592C40.0986 17.4141 40.5043 17.0283 40.9834 16.774C41.7862 16.3501 42.602 15.9092 43.4696 15.6676C44.3286 15.4302 45.1141 16.0109 45.2781 16.7825C45.4594 17.626 44.9933 18.4103 44.13 18.6265C43.8581 18.6943 43.543 18.6307 43.2581 18.5841C43.0984 18.5586 42.9517 18.4399 42.8049 18.3552C40.9964 17.342 39.6367 18.033 39.5806 20.0932C39.5072 22.7002 39.5331 25.3115 39.559 27.9185C39.572 29.08 39.9259 29.3895 41.1043 29.4955C41.3589 29.5167 41.6179 29.5251 41.8769 29.5336C42.2136 29.5463 42.533 29.6481 42.4035 30.0381C42.3474 30.2161 42.0323 30.4238 41.8337 30.4238C39.9475 30.4238 38.057 30.3814 36.1707 30.3602C35.8082 30.3602 35.4369 30.4408 35.0787 30.4069C34.906 30.3899 34.6082 30.1695 34.6212 30.072C34.6471 29.8812 34.837 29.5675 34.9794 29.5591C36.4772 29.4531 36.8139 28.991 36.8052 27.3971C36.7923 24.7435 36.7966 22.0898 36.8225 19.4361C36.8311 18.6477 36.4815 18.1305 35.8254 17.7278C35.6355 17.6091 35.4413 17.3675 35.4197 17.164C35.4067 17.041 35.7132 16.8545 35.9074 16.757C36.8441 16.295 37.7937 15.8541 38.7389 15.4048C38.9245 15.3157 39.1101 15.231 39.4986 15.0487L39.5072 15.0444Z"
            fill="white"></path>
        <path
            d="M110.139 15.1206V17.8463C110.562 17.5411 110.843 17.3461 111.115 17.1426C112.021 16.4602 112.932 15.7861 114.115 15.6463C114.974 15.5403 115.789 16.032 115.928 16.723C116.109 17.6344 115.604 18.4907 114.706 18.6433C114.361 18.7026 113.908 18.6221 113.618 18.4313C111.706 17.185 110.256 18.1643 110.213 20.1015C110.174 21.9752 110.148 23.8489 110.139 25.7226C110.139 26.5407 110.148 27.3673 110.234 28.1812C110.329 29.1096 110.584 29.33 111.516 29.4657C111.853 29.5165 112.203 29.5165 112.544 29.5377C112.88 29.5547 113.2 29.6564 113.07 30.0464C113.01 30.2202 112.69 30.4237 112.487 30.4237C110.575 30.4237 108.668 30.3813 106.755 30.3601C106.414 30.3601 106.065 30.4449 105.732 30.411C105.56 30.3898 105.262 30.1778 105.271 30.0761C105.288 29.8853 105.461 29.5971 105.625 29.5547C107.373 29.1096 107.468 29.0121 107.468 27.2105C107.468 24.684 107.446 22.1532 107.481 19.6268C107.493 18.7789 107.213 18.1685 106.479 17.7234C106.294 17.6089 106.104 17.3588 106.091 17.1596C106.082 17.0367 106.376 16.8502 106.57 16.7569C107.506 16.2948 108.452 15.8455 109.401 15.4004C109.6 15.3071 109.816 15.2478 110.139 15.1291V15.1206Z"
            fill="white"></path>
        <path
            d="M84.4271 11.5218C83.3178 11.5218 82.5754 10.7884 82.5797 9.70323C82.5797 8.57987 83.3696 7.83803 84.548 7.85075C85.6098 7.85923 86.3824 8.65193 86.3651 9.71594C86.3479 10.8266 85.5968 11.526 84.4271 11.5218Z"
            fill="white"></path>
    </g>
    <defs>
        <clipPath id="clip0_30_15">
            <rect width="134" height="40" fill="white"></rect>
        </clipPath>
    </defs>
</svg>