<svg xmlns="http://www.w3.org/2000/svg" width="93" height="40" viewBox="0 0 93 40" fill="none">
    <path
        d="M44.293 26.3918C42.0513 26.3918 41.464 24.104 41.3207 22.5941V18.8212C41.4306 17.7202 41.9556 15.7665 44.293 15.7655C45.9433 15.7645 47.2997 17.8372 47.2983 20.9541C47.2953 26.8694 44.293 26.3918 44.293 26.3918ZM45.0503 13.9977C42.8973 14.0016 41.6596 15.2435 41.4901 15.397C41.3883 15.4891 41.3413 15.4218 41.3206 15.3531V0.397915C41.3206 0.397915 41.29 0.0338343 40.7777 0.193176C40.2013 0.372573 38.0727 1.03538 37.9292 1.08068C37.7937 1.12308 37.7598 1.25129 37.7598 1.59243V27.5975C37.7598 27.8192 37.8276 27.9386 38.1326 27.9386H41.0488C41.21 27.9386 41.3204 27.8362 41.3204 27.6316V26.6958C41.3597 26.55 41.49 26.6646 41.49 26.6646C41.49 26.6646 42.7103 27.9615 44.9036 27.9615C48.6332 27.9615 50.793 24.6852 50.7979 20.9768C50.8032 16.5628 48.0232 13.9918 45.0503 13.9977Z"
        fill="white"></path>
    <path
        d="M35.262 27.4174C35.262 27.0445 35.2577 15.1223 35.2577 14.6129C35.2577 14.0954 34.8567 14.1178 34.8567 14.1178H32.0199C31.6809 14.1178 31.6809 14.5277 31.6809 14.5277L31.6799 23.1952C31.6799 23.1952 31.7657 25.9937 29.1546 25.9937C26.7133 25.9937 26.5696 23.1952 26.5696 23.1952L26.5778 14.5618C26.5778 14.1695 26.0862 14.1923 26.0862 14.1923L23.357 14.1864C23.0514 14.1923 22.9837 14.5105 22.9837 14.5105L22.9754 23.195C22.9754 25.7032 24.6959 28.1776 27.8833 28.1776C29.816 28.1776 31.3564 26.7077 31.4771 26.6077C31.6693 26.4484 31.6809 26.6418 31.6809 26.6418V27.6058C31.6809 27.9982 32.0393 27.9324 32.1802 27.9324H34.7714C35.3216 27.9324 35.262 27.3617 35.262 27.3617V27.4174Z"
        fill="white"></path>
    <path
        d="M63.1899 27.5292V26.5145V17.9059C63.1793 17.2393 63.1221 16.7289 62.8001 16.1997C61.7426 14.4633 59.2733 14.0845 57.8326 14.0845C56.0186 14.0845 53.9866 14.6913 53.1367 15.8245C52.4587 16.729 52.8907 17.1637 53.0011 17.2749C53.2214 17.4967 53.5919 17.5376 54.018 17.4796C54.8999 17.3601 55.3236 16.8144 55.6627 16.2685C55.7551 16.1193 56.0524 15.7904 56.205 15.705C56.3988 15.5968 56.7988 15.2615 57.7648 15.2615C58.6297 15.2615 59.5449 15.8415 59.5449 17.2408V19.0324C59.5067 19.2258 59.387 19.3116 59.0196 19.4076C57.6064 19.7775 56.0021 20.2776 54.7304 20.8751C54.1596 21.1431 51.6956 22.3421 51.6956 24.8507C51.6956 27.3587 53.8317 28.1775 55.6627 28.1775C57.4936 28.1775 58.9517 27.2051 59.2229 27.0516C59.4263 26.936 59.5218 26.9425 59.5567 26.9531V27.4113C59.5567 28.0531 60.3697 27.9328 61.3736 27.9328C62.3769 27.9328 63.19 28.0502 63.19 27.6852V27.558C63.1904 27.5404 63.1899 27.5292 63.1899 27.5292ZM59.5449 24.5505C59.4814 24.9398 59.3096 25.4444 58.8669 25.8229C57.8494 26.6934 56.7479 26.5228 56.0524 26.0958C55.3574 25.6694 54.8829 24.2024 55.8834 22.769C56.8834 21.3357 58.9009 20.7893 59.2568 20.6699C59.4389 20.609 59.5144 20.7001 59.5449 20.8035V24.5505Z"
        fill="white"></path>
    <path
        d="M83.7683 19.2994H91.1117C91.4279 19.2994 91.8157 19.3017 91.7669 18.8217C91.4167 15.3867 88.8396 13.6575 86.0932 13.6804C82.6351 13.7086 79.7044 17.1608 79.6962 21.1197C79.6909 23.8607 81.318 28.195 85.7314 28.195C90.269 28.195 91.4709 24.1444 91.5184 23.986C91.577 23.7905 91.4955 23.7076 91.437 23.6774C91.2505 23.5815 91.1116 23.5313 90.9077 23.4854C90.6952 23.4376 90.6361 23.5682 90.5464 23.7243C90.422 23.9406 89.439 26.1358 87.0879 26.1358C83.0302 26.1358 83.4021 19.9027 83.4148 19.6064C83.4231 19.4013 83.5024 19.3242 83.7683 19.2994ZM83.8894 17.3088C84.5107 15.1025 86.161 15.1137 86.161 15.1137C87.3363 15.1137 88.2632 15.8983 88.2632 17.5706C88.2632 17.8664 87.9693 17.7865 87.9693 17.7865H83.9053C83.7354 17.689 83.8894 17.3088 83.8894 17.3088Z"
        fill="white"></path>
    <path
        d="M68.6073 23.0223C68.3904 22.0046 68.3866 21.1001 68.3866 20.9432C68.3866 20.5562 68.3652 15.6425 71.5521 15.6526C73.2571 15.6581 74.0809 17.2172 74.3327 18.7475C74.3666 20.2895 74.3666 21.7736 74.3327 23.0111C74.1084 24.7159 73.2296 26.2267 71.5749 26.2326C71.5042 26.2326 71.4363 26.2277 71.3691 26.2228C69.6402 26.1064 68.912 24.4537 68.6073 23.0223ZM77.8701 0.354359C77.8701 -0.00972182 77.4861 0.104322 77.4861 0.104322C77.4861 0.104322 75.1458 0.801354 74.6039 0.957303C74.3071 1.04261 74.3328 1.57142 74.3328 1.57142V1.94429C74.3299 2.02271 74.3328 2.10173 74.3328 2.16848V14.9445C74.3328 15.0483 74.3124 15.1371 74.278 15.1979C74.2204 15.2994 74.1236 15.3232 74.016 15.2102C73.4964 14.6643 72.3433 13.9815 70.648 13.9815C67.8428 13.9815 64.8423 16.1908 64.7256 20.7463C64.7241 20.8159 64.7208 20.8842 64.7202 20.9544C64.7198 21.0251 64.7222 21.0943 64.7231 21.1639C64.7871 25.5294 67.6646 28.1095 70.5124 28.1095C72.6146 28.1095 73.971 26.6308 74.1066 26.5173C74.2058 26.4335 74.3327 26.4633 74.3327 26.6163V27.3015C74.3327 28.0073 74.4963 27.9327 74.6698 27.9327C74.8417 27.9327 77.4857 27.9839 77.6557 27.9157C77.8247 27.8474 77.8586 27.7334 77.8586 27.4381C77.8586 27.1417 77.8701 1.82445 77.8701 1.82445L77.8697 1.82107C77.8698 0.89634 77.8701 0.354359 77.8701 0.354359Z"
        fill="white"></path>
    <path
        d="M13.2159 14.2142H6.75638C6.64257 14.2142 6.58735 14.1391 6.56078 14.0733C8.31481 8.72923 9.91181 3.85938 9.91181 3.85938C9.96941 3.70832 10.0542 3.70582 10.1069 3.8511L13.41 14.088C13.3714 14.2142 13.2159 14.2142 13.2159 14.2142ZM21.9974 27.5483C21.8619 27.0707 13.2329 0.303972 13.2329 0.303972C13.2329 0.303972 13.1224 -0.0883461 12.8004 0.0184138L9.59616 0.982447C9.59616 0.982447 9.30608 1.07214 9.19375 1.37287L0.0412394 27.424C0.0412394 27.424 -0.153466 27.8997 0.303259 27.8988H1.67086C1.67086 27.8988 1.97203 27.9509 2.11201 27.5918C2.18567 27.4017 4.07086 21.6599 6.00641 15.7627C6.18218 15.6203 6.50229 15.6476 6.50229 15.6476H13.7414C13.8229 15.6476 13.8946 15.6959 13.9439 15.7411L17.7424 27.5143C17.7424 27.5143 17.8523 27.9408 18.3018 27.9408H21.6248C21.6248 27.9408 22.133 28.026 21.9974 27.5483Z"
        fill="white"></path>
    <path
        d="M63.6256 34.9633C63.3751 34.7799 63.0547 34.6884 62.6643 34.6884C62.506 34.6884 62.3506 34.7044 62.1976 34.7362C62.0444 34.7678 61.9084 34.8209 61.7898 34.8955C61.6711 34.97 61.5762 35.0695 61.505 35.1942C61.4339 35.3189 61.3981 35.4739 61.3981 35.6602C61.3981 35.8352 61.4499 35.9775 61.5526 36.086C61.6557 36.1947 61.7928 36.2839 61.9641 36.3527C62.1356 36.4219 62.3292 36.4789 62.5458 36.5238C62.7617 36.5692 62.9821 36.6184 63.2063 36.6715C63.4306 36.7246 63.6509 36.787 63.8673 36.8587C64.0833 36.9303 64.2774 37.0273 64.4489 37.1492C64.6203 37.2715 64.7574 37.4255 64.8606 37.6112C64.9632 37.7968 65.0144 38.0308 65.0144 38.312C65.0144 38.6146 64.9471 38.8735 64.8126 39.0884C64.6784 39.3033 64.5056 39.4788 64.2943 39.6143C64.0832 39.7493 63.8473 39.8477 63.5864 39.9086C63.3249 39.9696 63.0653 40.0002 62.8068 40.0002C62.49 40.0002 62.1909 39.9602 61.9086 39.8808C61.6267 39.8014 61.3788 39.6804 61.1647 39.5187C60.9511 39.3564 60.7821 39.1493 60.6586 38.8973C60.5346 38.6454 60.4727 38.3465 60.4727 38.0015H61.1846C61.1846 38.2403 61.231 38.446 61.323 38.6185C61.4156 38.791 61.5366 38.9329 61.6871 39.0445C61.8372 39.1562 62.0126 39.2384 62.2136 39.2916C62.4136 39.3447 62.6193 39.371 62.8304 39.371C62.9996 39.371 63.1694 39.3555 63.341 39.3233C63.5123 39.2915 63.6668 39.2369 63.8039 39.16C63.9409 39.0829 64.0519 38.9782 64.1361 38.8456C64.2204 38.713 64.263 38.5429 64.263 38.3358C64.263 38.1394 64.2117 37.98 64.1086 37.8583C64.0059 37.7359 63.8683 37.6364 63.697 37.5595C63.5256 37.4825 63.3318 37.4202 63.1153 37.3723C62.8993 37.3245 62.679 37.2754 62.4548 37.2246C62.2306 37.1745 62.0102 37.1159 61.7942 37.0496C61.5778 36.9834 61.3836 36.8956 61.2122 36.7869C61.0408 36.6783 60.9037 36.5374 60.8011 36.3648C60.6979 36.1924 60.6466 35.9759 60.6466 35.7157C60.6466 35.4292 60.7047 35.181 60.8209 34.971C60.9366 34.7615 61.0911 34.5888 61.2839 34.4534C61.4761 34.3178 61.695 34.2169 61.9406 34.1507C62.1856 34.0845 62.4374 34.0513 62.696 34.0513C62.986 34.0513 63.2553 34.0859 63.5032 34.1546C63.7512 34.2238 63.9686 34.3325 64.156 34.4812C64.3436 34.6298 64.4911 34.817 64.5992 35.0426C64.7071 35.2684 64.7668 35.5378 64.7774 35.8513H64.0651C64.0226 35.4424 63.8763 35.1465 63.6256 34.9633ZM55.337 39.873H54.5854V34.1868H55.337V39.873ZM47.7564 36.767C47.9142 36.7403 48.0528 36.6886 48.1719 36.6116C48.2906 36.5346 48.3854 36.4313 48.4567 36.3012C48.5278 36.171 48.5632 36.0024 48.5632 35.7953C48.5632 35.5087 48.4843 35.2753 48.3259 35.0944C48.1676 34.9142 47.9119 34.8239 47.5583 34.8239H45.6911V36.807H47.2577C47.432 36.8069 47.5981 36.7938 47.7564 36.767ZM47.5981 34.1868C48.1361 34.1868 48.557 34.3195 48.8601 34.585C49.1632 34.8502 49.3153 35.2137 49.3153 35.6758C49.3153 36.0208 49.2374 36.3236 49.082 36.5838C48.926 36.844 48.6771 37.0219 48.3343 37.1175V37.1335C48.4974 37.1653 48.6306 37.2184 48.7338 37.2924C48.8366 37.3669 48.9183 37.4556 48.9789 37.5595C49.0394 37.6628 49.0844 37.7783 49.1136 37.906C49.1426 38.0333 49.1649 38.1658 49.1808 38.3043C49.1914 38.4422 49.1992 38.583 49.2046 38.7263C49.2099 38.8696 49.223 39.0104 49.2442 39.1483C49.2651 39.2863 49.2957 39.4178 49.3352 39.5426C49.3746 39.6675 49.434 39.7775 49.513 39.873H48.6743C48.6216 39.8146 48.5862 39.7352 48.5678 39.6338C48.5489 39.5335 48.5372 39.4203 48.532 39.2956C48.5267 39.1708 48.5213 39.0368 48.516 38.8935C48.5107 38.7503 48.4952 38.6094 48.4686 38.4715C48.4477 38.3336 48.421 38.2019 48.3896 38.0772C48.3581 37.9523 48.3077 37.8436 48.239 37.7506C48.1707 37.6575 48.0812 37.5835 47.9702 37.5274C47.8593 37.4718 47.7117 37.444 47.5271 37.444H45.6913V39.8732H44.9392V34.1869L47.5981 34.1868ZM37.9837 34.1868L40.1913 39.873H39.3604L38.7434 38.1605H36.3537L35.7208 39.873H34.9532L37.1528 34.1868H37.9837ZM38.5061 37.5235L37.5642 34.8716H37.5483L36.5909 37.5235H38.5061ZM29.3586 34.1868C29.928 34.1868 30.3596 34.334 30.6526 34.6285C30.945 34.9233 31.0918 35.3362 31.0918 35.8669C31.0918 36.398 30.9451 36.8124 30.6526 37.1097C30.3596 37.407 29.928 37.5527 29.3586 37.5473H27.6337V39.873H26.8817V34.1868H29.3586ZM29.1053 36.9104C29.5323 36.9157 29.8452 36.828 30.0428 36.6476C30.2409 36.4674 30.3397 36.207 30.3397 35.8669C30.3397 35.5272 30.2408 35.2684 30.0428 35.0905C29.8452 34.9126 29.5324 34.8239 29.1053 34.8239H27.6336V36.9104H29.1053Z"
        fill="white"></path>
</svg>