<svg xmlns="http://www.w3.org/2000/svg" width="166" height="29" viewBox="0 0 166 29" fill="none">
    <path
        d="M0.116753 1.53076H3.9868C9.51904 5.00464 15.1562 8.54452 20.9403 12.1752V1.61328H24.9321V16.763C23.8659 16.8331 22.7872 16.7795 21.6623 16.7919C15.8698 13.1406 10.0479 9.47281 4.07915 5.71426C4.04976 9.45219 4.07075 13.054 4.04976 16.7094C3.37817 16.862 2.71498 16.7671 2.05598 16.7836C1.41377 16.8001 0.775753 16.7836 0.146135 16.7836C-0.0301577 16.1565 -0.0553424 2.45905 0.116753 1.53076Z"
        fill="white"></path>
    <path
        d="M113.666 16.7712H110.359C104.579 13.1281 98.7569 9.46035 92.8217 5.72243V16.7794C92.083 16.7794 91.424 16.7877 90.7692 16.7877C90.1312 16.7877 89.4931 16.7877 88.7922 16.7877V1.58019C89.4218 1.39865 90.0598 1.51417 90.6894 1.49355C91.3023 1.47292 91.9193 1.48942 92.6454 1.48942C98.228 4.99217 103.886 8.54444 109.666 12.171V1.6297H113.666V16.7712Z"
        fill="white"></path>
    <path
        d="M145.814 16.8165H141.306C139.896 15.3519 138.46 13.8583 137.017 12.3607H124.475C123.161 13.8088 121.826 15.2817 120.462 16.7794H115.857C120.911 11.1807 125.906 5.64812 130.901 0.119629C131.48 0.470317 144.421 14.9599 145.814 16.8165V16.8165ZM134.851 9.50982C133.549 7.9998 132.294 6.54753 130.985 5.03339C129.637 6.53516 128.336 7.97917 126.959 9.50982H134.846H134.851Z"
        fill="white"></path>
    <path
        d="M42.2718 0C47.2458 5.61926 52.1358 11.1395 57.1392 16.7918C56.2577 16.8743 55.5231 16.8289 54.7928 16.8372C54.0666 16.8454 53.3447 16.8372 52.5975 16.8372C51.1494 15.3313 49.7139 13.8377 48.2825 12.3525H35.7532C34.4142 13.8212 33.0752 15.2941 31.7236 16.7794H27.1358C32.1853 11.1519 37.2055 5.63164 42.2718 0ZM46.1293 9.52221C44.8113 7.99156 43.5604 6.54343 42.2508 5.02515C40.9034 6.53105 39.6022 7.98331 38.2213 9.52221H46.1293V9.52221Z"
        fill="white"></path>
    <path
        d="M165.996 7.85561V10.6941H151.855V16.8208H148.182V1.66699H165.979V4.42711H151.985V7.85561H166H165.996Z"
        fill="white"></path>
    <path
        d="M77.3246 1.65869V4.43944C72.6486 4.44769 67.9726 4.43532 63.2589 4.43944V7.87206H77.2574V10.6941C74.932 10.7271 72.6024 10.7023 70.2686 10.7064C67.9223 10.7106 65.5801 10.7064 63.1246 10.7064V16.8414H59.5358C59.3511 16.2308 59.3133 2.80977 59.4938 1.66282H77.3246V1.65869Z"
        fill="white"></path>
    <path
        d="M87.8898 26.215C88.7251 26.8133 88.2717 27.8818 88.6453 28.7812H87.7764C87.7009 28.282 87.6505 27.7993 87.554 27.3207C87.4322 26.7101 87.2224 26.5327 86.5928 26.5162C85.8792 26.4956 85.1614 26.5121 84.3891 26.5121V28.773L83.5832 28.8431V23.3641C84.897 23.3641 86.173 23.2899 87.4406 23.3889C88.4564 23.4673 88.9139 24.7669 88.3179 25.6374C88.1836 25.8355 88.0325 26.0252 87.8898 26.215V26.215ZM84.4017 25.7529C85.3083 25.8066 86.1898 25.8726 87.0629 25.7158C87.5456 25.6292 87.7513 25.2867 87.7093 24.8164C87.6715 24.3956 87.4239 24.082 86.9789 24.0655C86.131 24.0284 85.279 24.0531 84.4017 24.0531V25.7529V25.7529Z"
        fill="white"></path>
    <path
        d="M100.78 24.8616H99.9951C99.6677 24.0323 98.9458 23.8343 98.1105 23.9003C97.867 23.921 97.5774 23.9663 97.4095 24.1149C97.2038 24.2923 96.9939 24.5893 96.9897 24.8369C96.9897 25.0267 97.271 25.3113 97.4892 25.3938C97.8964 25.5506 98.3497 25.5919 98.7863 25.6826C99.1934 25.7693 99.6173 25.8188 99.9993 25.9673C101.124 26.4005 101.309 27.7331 100.364 28.484C99.4788 29.1854 97.4557 29.1689 96.5784 28.451C96.1712 28.1168 95.9698 27.6836 95.9404 27.0895L96.6414 27.0029C96.7043 27.0978 96.7547 27.1597 96.7841 27.2298C97.229 28.2571 98.845 28.6656 99.7517 27.9807C100.289 27.5764 100.234 26.9204 99.6006 26.6893C99.1095 26.5119 98.5722 26.4707 98.0559 26.3551C97.6781 26.2685 97.2836 26.2107 96.9352 26.054C96.0243 25.6455 95.8145 24.5976 96.4944 23.8673C96.6917 23.6528 96.9688 23.4712 97.2458 23.3722C98.0601 23.0834 98.8912 23.1082 99.6971 23.4094C100.318 23.6404 100.667 24.1149 100.788 24.8575L100.78 24.8616Z"
        fill="white"></path>
    <path
        d="M67.4732 23.3228C68.5813 23.3228 69.6391 23.2692 70.6842 23.3393C71.6916 23.4053 72.1953 23.9623 72.2163 24.8494C72.2373 25.7942 71.6832 26.4749 70.6884 26.5698C69.9203 26.6441 69.1396 26.5863 68.2917 26.5863V28.7688L67.4732 28.8431V23.327V23.3228ZM68.2875 25.8808C68.9927 25.8808 69.6265 25.8932 70.2561 25.8808C70.9403 25.8643 71.1795 25.691 71.3138 25.1794C71.4482 24.6761 71.3432 24.4615 70.7976 24.082H68.2833V25.8849L68.2875 25.8808Z"
        fill="white"></path>
    <path
        d="M80.5483 28.8059H79.6165L78.8819 27.2546H76.1536C75.9227 27.7291 75.6793 28.2448 75.419 28.7812H74.5417C75.398 26.9205 76.2207 25.134 77.0518 23.3311H78.034C78.8609 25.1258 79.6794 26.9122 80.5525 28.8059H80.5483ZM78.5461 26.479C78.2061 25.6456 77.9207 24.9236 77.4842 24.1191C77.1064 24.9937 76.7958 25.7075 76.4642 26.479H78.5461Z"
        fill="white"></path>
    <path d="M92.6789 28.8144H91.9569V23.3767L92.6789 23.3271V28.8144Z" fill="white"></path>
</svg>