<svg xmlns="http://www.w3.org/2000/svg" width="147" height="30" viewBox="0 0 147 30" fill="none">
    <path
        d="M49.8653 29.294C47.317 29.294 45.1226 28.3261 43.2441 26.4105C41.3647 24.4949 40.4347 22.0579 40.4347 19.1373C40.4347 16.2176 41.3823 13.7814 43.2609 11.8482C45.1579 9.91404 47.355 8.94522 49.8653 8.94522C52.3941 8.94522 54.5153 9.65198 56.2068 11.0655V9.52316H61.2838V28.7161H56.2068V27.2099C54.4959 28.604 52.3756 29.294 49.8653 29.294ZM82.71 29.2746C80.4415 29.2746 78.4879 28.8105 76.8697 27.8805C75.2515 26.932 74.3223 25.5176 74.0991 23.6205L79.2132 22.5793C79.4365 24.3273 80.7573 25.2026 83.175 25.2026C84.1059 25.2026 84.8303 25.0164 85.3694 24.6626C85.9085 24.3096 86.1688 23.8437 86.1688 23.2861C86.1688 22.4487 85.4629 21.8717 84.0494 21.5558L80.1256 20.7555C78.3768 20.384 77.0373 19.7329 76.1082 18.7843C75.1782 17.8358 74.7123 16.6826 74.7123 15.2876C74.7123 13.409 75.4182 11.8843 76.8512 10.7126C78.2647 9.54081 80.1794 8.9461 82.56 8.9461C84.7923 8.9461 86.6532 9.46669 88.1594 10.5255C89.6471 11.5861 90.577 12.9449 90.9123 14.6196L86.0568 15.5858C85.9641 14.8049 85.5741 14.1529 84.9229 13.6693C84.2718 13.1858 83.4353 12.944 82.4118 12.944C81.4818 12.944 80.8138 13.1302 80.4044 13.5026C79.995 13.874 79.7894 14.302 79.7894 14.8226C79.7894 15.6405 80.3665 16.1805 81.5188 16.4408L86.0947 17.4449C87.7315 17.8173 88.9968 18.4685 89.8518 19.417C90.7076 20.384 91.1356 21.5196 91.1356 22.8582C91.1356 24.9229 90.3715 26.5226 88.8468 27.6202C87.3221 28.717 85.2768 29.2746 82.71 29.2746ZM26.467 28.7161L14.5994 6.82581L7.92352 19.1011H1.61823L11.4379 1.00404H17.7626L32.79 28.7161H26.467ZM65.8597 28.7161V1.02345H70.9368V28.7161H65.8597ZM94.5944 28.7161V9.52316H99.6732V28.7161H94.5944ZM50.7388 24.8849C52.1709 24.8849 53.4538 24.3467 54.5506 23.2861C55.6668 22.207 56.2068 20.8305 56.2068 19.1567C56.2068 17.4643 55.6482 16.087 54.5506 15.0087C53.4353 13.9296 52.1709 13.3905 50.7388 13.3905C49.1771 13.3905 47.8738 13.912 46.8697 14.9726C45.8462 16.0137 45.345 17.4079 45.345 19.1567C45.345 20.8861 45.8656 22.282 46.8697 23.324C47.8932 24.3652 49.1762 24.8858 50.7388 24.8858V24.8849ZM97.1241 6.75257C96.2312 6.75257 95.4865 6.47198 94.9094 5.91434C94.3332 5.33816 94.0553 4.64992 94.0553 3.79492C94.0553 2.9761 94.3526 2.25081 94.9473 1.6561C95.5429 1.04198 96.2691 0.744629 97.1435 0.744629C98.0171 0.744629 98.7423 1.06051 99.3185 1.6561C99.9141 2.27022 100.211 2.9761 100.211 3.79492C100.211 4.65081 99.9141 5.35669 99.3185 5.91434C98.7229 6.47198 97.9976 6.75257 97.1241 6.75257ZM113.248 13.5961C115.759 13.5961 117.341 14.8605 117.972 17.4079L122.864 16.0314C122.213 13.912 121.023 12.2011 119.275 10.8987C117.526 9.59728 115.518 8.96463 113.248 8.96463C110.384 8.96463 107.948 9.91316 105.957 11.8287C103.968 13.7443 102.982 16.1805 102.982 19.1567C102.982 22.1329 103.968 24.569 105.957 26.4661C107.948 28.3632 110.384 29.3117 113.248 29.3117C115.555 29.3117 117.601 28.6605 119.386 27.3405C121.172 26.0382 122.325 24.2902 122.864 22.1143L118.177 20.9232C117.359 23.4158 115.722 24.6617 113.248 24.6617C111.668 24.6617 110.366 24.1596 109.38 23.137C108.394 22.1329 107.892 20.7935 107.892 19.1576C107.892 17.5199 108.394 16.1805 109.38 15.1579C110.366 14.1343 111.668 13.5961 113.248 13.5961ZM142.487 11.8843C140.479 10.0058 138.023 9.05728 135.159 9.05728C132.239 9.05728 129.765 10.0058 127.738 11.8843C125.711 13.7637 124.706 16.1814 124.706 19.1382C124.706 22.0958 125.711 24.5135 127.738 26.3911C129.765 28.2705 132.239 29.219 135.159 29.219C138.041 29.219 140.479 28.2705 142.487 26.392C144.496 24.5126 145.5 22.0949 145.5 19.139C145.5 16.1999 144.496 13.7814 142.487 11.8843ZM138.916 23.2861C137.818 24.3458 136.554 24.8849 135.14 24.8849C133.671 24.8849 132.388 24.3643 131.272 23.3046C130.156 22.244 129.598 20.8676 129.598 19.1382C129.598 17.4264 130.156 16.0323 131.272 14.9911C132.388 13.9305 133.671 13.4099 135.14 13.4099C136.554 13.4099 137.8 13.949 138.916 15.0096C140.014 16.0693 140.571 17.4449 140.571 19.139C140.571 20.8305 140.032 22.207 138.916 23.2861Z"
        fill="white"></path>
</svg>